<svg width="604" height="121" xmlns="http://www.w3.org/2000/svg">

 <g>
  <title>Layer 1</title>
  <g>
   <g id="svg_1">
    <path fill="rgb(1.960784%,1.960784%,1.960784%)" fill-rule="nonzero" d="m105.41328,43.44141l-39.46875,0l7.44922,6.2539c0.92578,0.64844 1.53125,1.72266 1.53125,2.9375l0,60.53125c0,1.98047 -1.60156,3.58594 -3.58203,3.58594l-20.26172,0c-0.99219,0 -1.88672,-0.40234 -2.53515,-1.05078l-10.50391,-8.81641c-0.92578,-0.64843 -1.53125,-1.72265 -1.53125,-2.9375l0,-30.6914l-19.24609,0c-1.09375,0 -2.1211,-0.5 -2.79688,-1.34375l-9.91016,-8.3125c-0.51953,-0.28516 -0.96875,-0.69922 -1.29687,-1.21485c-0.66016,-1.03125 -0.74609,-2.32422 -0.23438,-3.43359l7.8711,-17.03516c0.3164,-0.68359 0.82812,-1.23047 1.44922,-1.59375l-7.78907,-6.53515c-0.51953,-0.28516 -0.96875,-0.69922 -1.29687,-1.21485c-0.66016,-1.03125 -0.74609,-2.32422 -0.23438,-3.43359l7.8711,-17.03516c0.58594,-1.26953 1.85937,-2.08203 3.2539,-2.08203l72.40235,0c1.02344,0 1.97265,0.42969 2.64062,1.15625l10.27735,8.625c0.5664,0.36328 1.03125,0.88281 1.32422,1.51563l7.87109,17.03515c0.45703,0.98438 0.4375,2.11719 -0.03125,3.07813c0.06641,-0.07031 0.13281,-0.14063 0.19922,-0.21094c6.44531,-6.76172 16.33984,-10.9375 27.16797,-10.9375c9.8164,0 18.45312,3.17969 24.69922,8.60938l10.1289,8.5c0.88281,0.71484 1.71875,1.46875 2.51172,2.26562c1.57422,1.73438 2.97656,3.69531 4.19922,5.85156c2.02344,-5.32812 5.14844,-10.14843 8.98437,-13.94531c6.92188,-6.85156 17.20313,-11.41016 27.80079,-11.41016c3.08203,0 6.12109,0.39454 9.05468,1.1211c1.46485,0.36328 2.90625,0.8125 4.3125,1.33203c1.40625,0.52344 2.78125,1.125 4.11328,1.78906c3.33204,1.66797 6.41407,3.75781 9.125,6.16016l9.31641,7.8164c0.34375,0.27344 0.68359,0.55079 1.01563,0.83594l0,-41.41015c0,-1.98047 1.60546,-3.58594 3.58593,-3.58594l19.61719,0c0.98828,0 1.88672,0.40234 2.53516,1.05078l10.5039,8.8125c0.92578,0.64844 1.53125,1.72266 1.53125,2.9375l0,14.52734c2.76172,-0.89062 5.71485,-1.40625 8.79297,-1.51172c7.52344,0.14063 14.57031,2.94532 19.20313,7.66407l7.6914,6.45312c1.46485,1.01563 2.78907,2.16797 3.94141,3.45313c1.28906,1.4375 2.43359,3.09765 3.40625,4.9375c1.47656,-11.375 6.90625,-21.72266 14.73437,-29.0586c9.21485,-8.64062 22.75391,-14.10156 37.36329,-14.10156c14.08593,0 26.9375,5.10938 36.28515,13.15234l10.01563,8.40625c1.69531,1.38672 3.28515,2.86719 4.7539,4.4336c0.73047,0.79687 1.06641,1.8789 0.91016,2.94922c-0.16016,1.07031 -0.78906,2.01172 -1.72266,2.5625l-14.57422,8.63672l5.7461,0c0.98828,0 1.88672,0.39843 2.53515,1.05078l8.02344,6.73047c1.72266,-6.32032 4.75781,-11.87891 8.76563,-16.07813c6.44531,-6.76172 16.33593,-10.9375 27.16406,-10.9375c9.81641,0 18.45703,3.17969 24.69922,8.60938l10.13281,8.5c0.87891,0.71484 1.71875,1.46875 2.50781,2.26562c2.05469,2.26172 3.81641,4.90625 5.26172,7.875l0,-22.76172c0,-1.98047 1.60547,-3.58594 3.58594,-3.58594l19.62109,0c0.98828,0 1.88672,0.40235 2.53516,1.05079l3.9375,3.30468c4.67969,-3.38281 10.41406,-5.29687 16.83984,-5.51562c0.53516,-0.00781 1.05469,0.10547 1.53125,0.32031c6.78516,0.44922 13.04688,3.0625 17.33985,7.28125l8.3164,6.97656c1.34375,0.96485 2.56641,2.0586 3.64063,3.26172c4.53906,5.09375 7.17969,12.96094 7.28125,21.55078l0,43.88282c0,1.98046 -1.60547,3.58593 -3.58594,3.58593l-19.48828,0c-0.99219,0 -1.88672,-0.40234 -2.53516,-1.05078l-10.5039,-8.8125c-0.92578,-0.64844 -1.53125,-1.72265 -1.53125,-2.9375l0,-37.5625l-0.06641,-1.46484l-0.26953,0.02734l-1.80859,0.66797l-1.61719,1.15625l-1.56641,1.67969l-1.46094,2.11719l-1.1289,2.34765l-0.8086,2.62891l-0.48046,2.94531l0,34.54688c0,1.98046 -1.60547,3.58203 -3.58594,3.58203l-19.6211,0c-0.98828,0 -1.88671,-0.39844 -2.53515,-1.04688l-10.50391,-8.8164c-0.91015,-0.63672 -1.50781,-1.6875 -1.52734,-2.875c-0.1211,0.20312 -0.26172,0.39453 -0.42578,0.57812c-7.49219,8.07422 -18.50391,12.80469 -30.54688,12.80469c-10.25,0 -19.53125,-3.36719 -26.03125,-9.02735l-10.08984,-8.46484c-0.91797,-0.74609 -1.78906,-1.53125 -2.60547,-2.36328c-1.82031,-1.84766 -3.4375,-3.97266 -4.82422,-6.32031l0,2.20312c0,0.71094 -0.21484,1.41016 -0.61328,2c-9.14844,13.22266 -25.60938,22.36328 -44.27734,22.36328c-3.67969,0 -7.50391,-0.42968 -11.00391,-1.09765c-0.46094,-0.08985 -0.89063,-0.26563 -1.26563,-0.50782c-3.33203,-1.18359 -7.14843,-3.32812 -10.49609,-6.13671l-10.97266,-9.20704c-1.11718,-0.9414 -2.1875,-1.95312 -3.16796,-3.03125c-0.7461,-0.84765 -2.30079,-2.82421 -3.9336,-5.71484c-0.46094,0.55859 -1.09765,0.98047 -1.83594,1.17969c-1.20312,0.32031 -2.45312,-0.00781 -3.33593,-0.8086l-10.77344,-9.03906c-0.38672,-0.30078 -0.71484,-0.67969 -0.95703,-1.1289c-0.53125,-1 -1.03516,-2.03125 -1.5,-3.08594l0,33.83203c0,1.98047 -1.60547,3.58594 -3.58594,3.58594l-19.62109,0c-0.98828,0 -1.88672,-0.40235 -2.53516,-1.05078l-10.50391,-8.8125c-0.92578,-0.64844 -1.53125,-1.72266 -1.53125,-2.94141l0,-37.55859l-0.0625,-1.5l-0.59375,0.04687l-2.03125,0.63672l-1.74218,1.10937l-1.58594,1.62891l-1.41406,2.08984l-1.01563,2.41407l-0.60156,2.82422l-0.16016,3.32421l0,34.07422c0,1.98047 -1.60547,3.58594 -3.58593,3.58594l-19.61719,0c-0.98828,0 -1.88672,-0.40234 -2.53516,-1.05078l-10.5039,-8.8125c-0.11329,-0.08203 -0.22266,-0.16797 -0.32813,-0.26172c-7.10547,6.51172 -16.875,10.89453 -27.15234,10.89453c-9.75782,0 -19.23828,-3.85937 -26.08594,-9.8164l-9.95703,-8.35547c-0.96485,-0.78125 -1.88281,-1.60157 -2.7461,-2.45703c-2.72265,-2.69532 -5.08593,-5.90235 -6.95312,-9.44532l-14.00391,0l1.875,1.57422c0.21094,0.14063 0.40625,0.30469 0.58203,0.48828l10.07032,10.45313c1.30078,1.35547 1.33984,3.48437 0.08203,4.88281c-7.48828,8.07422 -18.50391,12.80469 -30.54688,12.80469c-10.24609,0 -19.53125,-3.36719 -26.03125,-9.02735l-10.08593,-8.46484c-0.92188,-0.74609 -1.79297,-1.53516 -2.60547,-2.36328c-6.51953,-6.62109 -10.4375,-16.75781 -10.4375,-28.05469c0,-10.41015 3.34765,-19.92969 8.91015,-26.63281c-0.57812,0.375 -1.25781,0.58594 -1.96875,0.58594zm396.23047,43.7539l1.875,1.57422c0.20703,0.14063 0.40235,0.30469 0.57813,0.48828l10.07031,10.45313c0.19922,0.20703 0.37109,0.43359 0.50781,0.67187l0,-13.1875l-13.03125,0zm-92.73047,-39.57422l-4.16015,-2.23437l-4.50782,-1.35547l-4.82812,-0.45703l-2.04297,0.03125l-2.48437,0.14844l-2.85157,0.35156l-3.13672,0.63672l-3.34375,1.0039l-3.46875,1.45704l-3.51562,1.99218l-3.48828,2.61328c-0.32422,0.26172 -0.6875,0.46094 -1.07031,0.59766l-2.76172,2.5625l-2.3086,2.65234l-1.90234,2.67579l-0.07813,0.13281l5.53516,4.64844c1.02344,0.63281 1.6875,1.76171 1.69922,3.01953l0.48047,5.02343l1.54297,4.5625l2.20312,3.64454l0.69531,0.3789l4.55079,1.40625l4.87109,0.47656l5.64062,-0.58203l5.01954,-1.71484l1.2539,-0.80078l-9.45312,-7.92969c-0.92578,-0.64844 -1.53125,-1.72656 -1.53125,-2.94141l0,-16.52343c0,-1.97657 1.60547,-3.58203 3.58593,-3.58203l22.16797,0l-2.3125,-1.89454zm-168.30859,23.00391c-1.51172,1.10938 -3.625,0.86719 -4.84766,-0.55469l-3.65625,-3.07031l-0.7539,-0.46484l-2.69922,-0.86719l-3.07422,-0.28516l-2.76953,0.23828l-2.44531,0.71485l-2.20313,1.1875l-2.02344,1.66797l-1.70312,1.95703l-1.21485,2.12109l-0.72265,2.36328l-0.24219,2.6875l0.24219,2.6875l0.26562,0.875l1.82813,0.15625l3.15234,-0.28515l2.73828,-0.86719l2.375,-1.46094l2.05078,-2.07422c1.22657,-1.42968 3.34766,-1.66797 4.85938,-0.54687l14.96875,11.10156c0.11719,0.08594 0.22656,0.17969 0.33203,0.27734l6.20313,5.20704l0,-30.60157l-10.66016,7.83594zm0,0"/>
    <path fill="rgb(22.745098%,72.941178%,93.333334%)" fill-rule="nonzero" d="m94.42891,30.64063l-7.875,-17.03516l-72.40235,0l-7.87109,17.03516l88.14844,0zm-88.14844,29.8125l33.8125,0l0,43.49218l20.26172,0l0,-60.52734l-46.20313,0l-7.87109,17.03516zm0,0"/>
    <path fill="rgb(22.745098%,72.941178%,93.333334%)" fill-rule="nonzero" d="m168.77266,74.39453l-47.3711,0l0.26172,1.16016c2.19141,8.77734 8.25782,13.8125 16.64844,13.8125c5.9375,0 11.61719,-2.45313 16.13281,-6.83985l10.07032,10.45313c-6.83985,7.61328 -16.51954,11.61719 -27.87891,11.61719c-21.03906,0 -34.59375,-13.8086 -34.59375,-35.10938c0,-21.29687 13.68359,-35.62109 33.94531,-35.62109c10.07031,0 18.07031,3.09765 23.75,9.03515c6.58203,6.96875 9.67969,17.8086 9.03516,31.49219zm-18.71485,-10.32422l-0.1289,-0.77734c0,-9.16406 -5.55078,-15.35938 -13.8125,-15.35938c-7.61328,0 -13.29297,5.8086 -14.83985,15.10157l-0.1289,1.03515l28.91015,0zm0,0"/>
    <path fill="rgb(22.745098%,72.941178%,93.333334%)" fill-rule="nonzero" d="m214.32735,104.46875c-19.7461,0 -35.75,-15.875 -35.75,-35.36719c0,-19.48828 16.0039,-35.36328 35.75,-35.36328c11.48828,0 21.68359,5.41797 28.26953,13.67969l-15.10157,11.10156c-3.09765,-3.61719 -7.74609,-5.9375 -12.91015,-5.9375c-9.29297,0 -16.90625,7.35547 -16.90625,16.51953c0,9.16407 7.61328,16.52344 16.90625,16.52344c5.29297,0 9.9414,-2.32422 13.03906,-5.9375l14.97266,11.09766c-6.58594,8.26172 -16.78125,13.68359 -28.26953,13.68359zm0,0"/>
    <path fill="rgb(22.745098%,72.941178%,93.333334%)" fill-rule="nonzero" d="m321.45235,59.94141l0,43.88281l-19.6211,0l0,-37.55859c0,-8.90625 -4.90625,-14.45704 -12.77734,-14.45704c-8.77735,0 -14.58594,7.10157 -14.58594,17.8125l0,34.07422l-19.61719,0l0,-95.89843l19.61719,0l0,41.17187l1.80859,-3.09766c4.38672,-7.87109 11.875,-12.13281 21.55469,-12.26171c14.32813,0 23.6211,10.32812 23.6211,26.33203zm0,0"/>
    <path fill="rgb(22.745098%,72.941178%,93.333334%)" fill-rule="nonzero" d="m357.84297,39.54688c-9.42187,7.61328 -12.77734,17.16796 -14.45703,22.19921c-2.45313,7.48829 -2.83984,14.19922 -2.71094,18.84766c-3.48437,-6.45703 -5.42187,-13.8125 -5.42187,-21.81641c0,-26.07031 21.03906,-45.82031 48.91797,-45.82031c15.35937,0 28.52734,5.9375 37.42968,15.6211l-17.42187,10.32421c-5.29297,-5.03515 -12.39063,-8.13281 -19.7461,-8.13281c-4.90625,0 -16.39453,0.77735 -26.58984,9.03516l0,-0.25781zm0,0"/>
    <path fill="rgb(11.372549%,31.764707%,47.450981%)" fill-rule="nonzero" d="m425.60469,53.09766l0,31.10937c-8.51953,12.64844 -23.49219,20.78125 -41.30469,20.78125c-3.48437,0 -6.96875,-0.38672 -10.32422,-1.03515c0.12891,0 0.25782,0 0.38672,0c-4.25781,-1.16016 -9.42187,-4.12891 -13.29297,-8.51563c-1.9375,-2.19531 -9.16406,-11.10156 -8.51953,-24.14062c0.25781,-4.90235 1.54688,-9.03125 3.09766,-12.38672c0.1289,15.61718 14.07031,28.26562 28.91406,28.26562c8.77344,0 17.16406,-4.39062 22.45703,-11.35937l0,-6.19532l-17.9414,0l0,-16.52343l36.52734,0zm0,0"/>
    <path fill="rgb(11.372549%,31.764707%,47.450981%)" fill-rule="nonzero" d="m504.84688,74.39453l-47.3711,0l0.25782,1.16016c2.19531,8.77734 8.26171,13.8125 16.64843,13.8125c5.9375,0 11.6211,-2.45313 16.13672,-6.83985l10.06641,10.45313c-6.83985,7.61328 -16.51953,11.61719 -27.87891,11.61719c-21.03906,0 -34.58984,-13.8086 -34.58984,-35.10938c0,-21.29687 13.67969,-35.62109 33.94531,-35.62109c10.06641,0 18.07031,3.09765 23.74609,9.03515c6.58594,6.96875 9.6836,17.8086 9.03907,31.49219zm-18.71875,-10.32422l-0.125,-0.77734c0,-9.16406 -5.55078,-15.35938 -13.8125,-15.35938c-7.61328,0 -13.29688,5.8086 -14.84375,15.10157l-0.12891,1.03515l28.91016,0zm0,0"/>
    <path fill="rgb(11.372549%,31.764707%,47.450981%)" fill-rule="nonzero" d="m584.7336,60.19531l0,43.88672l-19.49219,0l0,-37.5625c0,-8.77344 -5.03125,-14.45312 -12.77344,-14.45312c-8.00391,0 -13.55469,7.74218 -14.58594,17.16406l0,34.72266l-19.62109,0l0,-69.1836l19.62109,0l0,14.19922l1.80469,-3.09766c4.51953,-8.0039 11.74609,-12.13281 21.55469,-12.26171l0,0.25781c14.32812,0 23.49219,10.32422 23.49219,26.32812zm0,0"/>
   </g>
  </g>
 </g>
</svg>